HIERARCHY
ROOT Hips
{
 OFFSET 0.000000 0.000000 0.000000
 CHANNELS 6 Xposition Yposition Zposition Yrotation Xrotation Zrotation
 JOINT Chest
 {
  OFFSET 0.000000 10.080317 -0.001081
  CHANNELS 3 Yrotation Xrotation Zrotation
  JOINT Chest2
  {
   OFFSET 0.000000 11.096852 0.001963
   CHANNELS 3 Yrotation Xrotation Zrotation
   JOINT Chest3
   {
    OFFSET 0.000000 10.026525 0.000000
    CHANNELS 3 Yrotation Xrotation Zrotation
    JOINT Chest4
    {
     OFFSET 0.000000 10.026525 0.000000
     CHANNELS 3 Yrotation Xrotation Zrotation
     JOINT Neck
     {
      OFFSET 0.000000 14.108171 0.000000
      CHANNELS 3 Yrotation Xrotation Zrotation
      JOINT Head
      {
       OFFSET 0.000000 9.333493 0.004668
       CHANNELS 3 Yrotation Xrotation Zrotation
       End Site
       {
        OFFSET 0.000000 17.851786 0.002438
       }
      }
     }
     JOINT RightCollar
     {
      OFFSET -3.071622 7.873185 0.000000
      CHANNELS 3 Yrotation Xrotation Zrotation
      JOINT RightShoulder
      {
       OFFSET -14.378659 0.000000 0.000000
       CHANNELS 3 Yrotation Xrotation Zrotation
       JOINT RightElbow
       {
        OFFSET -30.778728 0.000000 0.000000
        CHANNELS 3 Yrotation Xrotation Zrotation
        JOINT RightWrist
        {
         OFFSET -25.164217 0.000000 0.000000
         CHANNELS 3 Yrotation Xrotation Zrotation
         End Site
         {
          OFFSET -18.796788 0.000000 0.000000
         }
        }
       }
      }
     }
     JOINT LeftCollar
     {
      OFFSET 3.071622 7.873185 0.000000
      CHANNELS 3 Yrotation Xrotation Zrotation
      JOINT LeftShoulder
      {
       OFFSET 14.378659 0.000000 0.000000
       CHANNELS 3 Yrotation Xrotation Zrotation
       JOINT LeftElbow
       {
        OFFSET 30.778728 0.000000 0.000000
        CHANNELS 3 Yrotation Xrotation Zrotation
        JOINT LeftWrist
        {
         OFFSET 25.164217 0.000000 0.000000
         CHANNELS 3 Yrotation Xrotation Zrotation
         End Site
         {
          OFFSET 18.796788 0.000000 0.000000
         }
        }
       }
      }
     }
    }
   }
  }
 }
 JOINT RightHip
 {
  OFFSET -8.194923 0.005295 0.000540
  CHANNELS 3 Yrotation Xrotation Zrotation
  JOINT RightKnee
  {
   OFFSET 0.000000 -42.473320 -0.000511
   CHANNELS 3 Yrotation Xrotation Zrotation
   JOINT RightAnkle
   {
    OFFSET 0.000000 -41.474259 -0.000865
    CHANNELS 3 Yrotation Xrotation Zrotation
    JOINT RightToe
    {
     OFFSET 0.000000 -7.354994 16.712725
     CHANNELS 3 Yrotation Xrotation Zrotation
     End Site
     {
      OFFSET 0.000000 -1.553903 6.764158
     }
    }
   }
  }
 }
 JOINT LeftHip
 {
  OFFSET 8.194923 0.005295 0.000540
  CHANNELS 3 Yrotation Xrotation Zrotation
  JOINT LeftKnee
  {
   OFFSET 0.000000 -42.473320 -0.000511
   CHANNELS 3 Yrotation Xrotation Zrotation
   JOINT LeftAnkle
   {
    OFFSET 0.000000 -41.474259 -0.000865
    CHANNELS 3 Yrotation Xrotation Zrotation
    JOINT LeftToe
    {
     OFFSET 0.000000 -7.354994 16.712725
     CHANNELS 3 Yrotation Xrotation Zrotation
     End Site
     {
      OFFSET 0.000000 -1.553903 6.764158
     }
    }
   }
  }
 }
}
MOTION
Frames: 12
Frame Time: 0.016667
-28.697396 84.898538 117.951636 -16.747003 1.649521 0.866741 -9.169362 7.510514 5.329486 -3.953823 3.432916 2.318553 -3.953823 3.432916 2.318553 -2.977566 2.559864 1.760714 4.507671 19.199097 -0.117567 8.286005 -0.404082 -1.641151 -1.459682 -10.093135 1.682883 9.377679 -35.971056 40.536716 120.698339 -19.385560 21.587249 3.348227 4.525415 -9.075197 -28.140072 -17.095271 6.659391 -38.831991 -50.897229 4.098060 -86.368643 0.967988 -32.114868 -4.144626 8.071044 10.212886 4.751001 -38.112608 8.025014 21.649775 36.095178 1.869703 3.293537 2.365386 0.666581 -0.117004 -0.221457 -0.082991 27.516188 3.726878 4.669653 9.056937 40.581615 -18.190208 10.420805 -24.403449 1.366127 0.897431 -20.128875 -2.650996
-29.117855 85.146321 118.049819 -14.844010 1.472782 1.097717 -8.864558 7.254118 5.394467 -3.780042 3.361916 2.292770 -3.780042 3.361916 2.292770 -2.846890 2.507417 1.739977 3.970928 18.964698 -0.086759 7.302796 -0.868198 -1.429392 -1.190155 -10.164756 1.769344 9.990611 -36.332158 40.174709 120.991710 -19.114584 21.271340 3.746248 4.640526 -9.769544 -28.165886 -17.003812 6.293742 -37.809017 -53.086113 0.328320 -87.874478 0.914664 -31.574150 -3.648008 8.788062 11.165911 4.580095 -37.474811 7.468427 21.153568 35.752464 1.497728 2.527600 2.291252 0.754778 -0.137385 -0.193295 -0.058631 26.626265 4.204402 4.913182 8.672468 39.705924 -17.931571 9.844775 -24.131219 1.136977 0.907964 -19.658973 -2.347458
-29.566725 85.381565 118.144558 -12.774755 1.256486 1.310674 -8.542808 6.978279 5.475104 -3.598442 3.287765 2.263446 -3.598442 3.287765 2.263446 -2.710322 2.452642 1.716566 3.378059 18.792569 -0.042810 6.208085 -1.216158 -1.168455 -0.715709 -10.342167 1.693331 10.575448 -36.703301 39.870335 121.339709 -18.863927 20.944911 4.201572 4.802915 -10.738221 -27.878931 -17.005395 5.580492 -36.174428 -55.591283 -4.548899 -89.487735 0.804870 -31.294715 -3.429619 9.391834 11.816396 4.411342 -36.792582 6.843010 20.498348 35.380658 1.134966 1.780034 2.181355 0.848175 -0.158532 -0.136780 -0.061761 25.611216 4.761543 5.160796 8.240687 38.699327 -17.639524 9.081617 -23.922097 0.905444 1.009198 -19.076635 -1.941628
-30.018715 85.615538 118.227611 -10.497714 1.108110 1.563292 -8.371608 6.601108 5.559716 -3.442544 3.217485 2.232240 -3.442544 3.217485 2.232240 -2.593032 2.400673 1.691944 2.743792 18.678418 0.018653 5.028168 -1.453851 -0.856256 -0.048112 -10.661171 1.573385 11.192438 -37.022439 39.542278 121.792819 -18.523484 20.471503 4.490488 4.949040 -11.473818 -27.294176 -17.213218 4.538532 -33.443116 -57.995645 -10.660224 -90.998909 0.228107 -31.054976 -3.398677 9.732272 12.480294 4.183269 -36.133855 6.088373 19.728315 34.931989 0.765028 1.054765 2.007844 0.982215 -0.172414 -0.020722 -0.098300 24.458721 5.298527 5.316103 7.859578 37.514524 -17.253121 8.195513 -23.739961 0.732652 1.190584 -18.325272 -1.560408
-30.471382 85.851580 118.362273 -8.115269 0.838114 1.829363 -8.301205 6.310976 5.613018 -3.356743 3.150716 2.210991 -3.356743 3.150716 2.210991 -2.528370 2.351018 1.675205 2.121968 18.602164 0.082373 3.868050 -1.615103 -0.540213 0.923383 -11.067240 1.358044 11.810837 -37.364947 39.223327 122.367252 -18.077838 19.884075 4.634589 5.102137 -11.912435 -26.194410 -17.426857 3.196111 -29.455806 -60.023451 -18.174817 -92.718955 -0.506214 -30.751115 -3.390678 10.173380 13.244533 3.907775 -35.258485 5.274854 18.880497 34.389391 0.365879 0.365545 1.727789 1.227796 -0.186160 0.154983 -0.205708 23.297086 6.056466 5.385865 7.646057 36.105292 -16.638887 7.417822 -23.597683 0.571739 1.359294 -17.419699 -1.332256
-30.940424 86.104593 118.499137 -5.444405 0.716864 2.030454 -8.522411 5.790570 5.631573 -3.313202 3.077517 2.157964 -3.313202 3.077517 2.157964 -2.495216 2.296556 1.634839 1.585923 18.547149 0.202154 2.845769 -1.731032 -0.147051 1.958640 -11.450122 1.376177 12.356555 -37.775903 38.886159 122.875055 -17.628576 19.304801 4.755521 5.187799 -12.197254 -24.744113 -17.454365 1.733435 -24.499653 -61.551682 -26.978384 -94.386370 -1.135182 -30.205653 -3.468233 10.383335 13.662041 3.239126 -34.469593 4.603802 18.129316 33.759293 -0.062095 -0.350715 1.464106 1.600172 -0.211577 0.315398 -0.372565 22.013906 6.689645 5.416729 7.448731 34.493555 -15.889357 6.549385 -23.485741 0.497458 1.621547 -16.334064 -1.220476
-31.405409 86.355739 118.698935 -2.819942 0.401660 2.167757 -8.639366 5.362239 5.534825 -3.280659 2.982881 2.063904 -3.280659 2.982881 2.063904 -2.470052 2.226191 1.563656 1.108608 18.585309 0.410949 1.900982 -1.669094 0.392625 2.899769 -11.671481 1.556890 12.778042 -38.315566 38.721207 123.186152 -17.363342 18.873236 4.997560 5.307555 -12.620567 -23.372624 -16.872256 0.090143 -19.031493 -62.617120 -36.007372 -95.851011 -2.092521 -29.749339 -3.706731 10.336545 13.610040 2.586236 -33.528018 4.044471 17.089233 33.232926 -0.629183 -0.869981 1.249753 1.988402 -0.242515 0.362558 -0.525182 20.970659 7.628483 5.494741 7.131228 32.607078 -15.038970 5.849299 -23.437659 0.474907 1.859338 -15.099017 -1.272551
-31.878789 86.598848 118.883797 -0.234509 0.103570 2.200171 -8.764388 4.889850 5.451227 -3.249740 2.879877 1.952791 -3.249740 2.879877 1.952791 -2.446030 2.149625 1.479659 0.696148 18.688463 0.683281 1.055274 -1.480473 1.027485 3.712073 -11.821768 1.877636 12.978824 -38.702257 38.687234 123.448908 -17.242379 18.490019 5.345405 5.304170 -13.092163 -22.240873 -15.969834 -1.691285 -13.543639 -63.180509 -44.459683 -97.239125 -2.953167 -29.470819 -3.992223 10.301077 13.588990 2.038070 -32.680285 3.568162 15.783663 32.759804 -1.254839 -1.289824 1.180672 2.351823 -0.280933 0.302586 -0.638354 19.956799 8.593329 5.621031 6.899162 30.520048 -14.114925 5.227187 -23.389153 0.443944 2.107777 -13.741602 -1.409819
-32.341944 86.830500 119.098472 2.151883 -0.336202 2.158413 -8.710026 4.597150 5.283499 -3.196527 2.788689 1.815205 -3.196527 2.788689 1.815205 -2.405235 2.082114 1.375775 0.325162 18.819516 1.070419 0.250440 -1.233372 1.857656 4.350834 -11.943776 2.275997 12.818590 -38.899335 39.006339 123.776503 -17.254798 18.159976 5.665563 5.384068 -13.488377 -21.392988 -14.874532 -3.266273 -8.060192 -63.231176 -52.299185 -98.586034 -3.673614 -29.360854 -4.247302 10.315180 13.382069 1.712142 -31.682191 3.143691 14.597055 32.265662 -1.746702 -1.857701 1.196796 2.683338 -0.322242 0.202560 -0.716016 19.071304 9.760368 5.757866 6.883388 28.342251 -12.985753 4.735291 -23.408603 0.305154 2.306952 -12.292573 -1.641363
-32.789647 87.037817 119.296035 4.454126 -0.732291 2.066401 -8.662018 4.293099 5.039592 -3.134807 2.702366 1.661463 -3.134807 2.702366 1.661463 -2.358041 2.018335 1.259776 -0.021604 18.946573 1.533558 -0.532046 -0.985127 2.817045 4.872181 -12.013787 2.754286 12.382932 -38.773048 39.585306 124.099152 -17.343755 17.869008 5.984723 5.389519 -13.827845 -20.791746 -13.738112 -4.681891 -2.759958 -62.893289 -59.434229 -99.549438 -4.344489 -29.698961 -4.514839 10.333113 13.175933 1.215894 -30.716431 2.883696 13.732770 31.739298 -2.128506 -2.537538 1.231092 2.975321 -0.358097 0.140591 -0.759905 18.207971 10.938244 5.861512 6.793568 26.031951 -11.867865 4.346286 -23.524973 0.241580 2.467769 -10.711646 -1.955657
-33.181677 87.216871 119.569726 6.551256 -1.643948 2.083843 -8.516591 4.513102 4.488976 -3.068093 2.613800 1.496409 -3.068093 2.613800 1.496409 -2.307090 1.952911 1.135276 -0.345913 19.106198 2.051847 -1.287232 -0.666829 3.867091 5.071982 -11.998673 3.363025 11.719475 -38.383212 40.392396 124.320339 -17.569612 17.746324 6.419022 5.408460 -14.227490 -20.718081 -12.399891 -5.870555 1.700844 -62.350349 -65.149940 -99.920094 -4.842715 -30.219619 -4.889102 10.249606 13.010385 0.966905 -29.276636 2.481312 12.921105 31.425712 -2.464039 -3.145206 1.015167 3.332796 -0.510182 0.165440 -0.826699 17.475786 12.629521 5.915106 6.546783 23.716855 -10.706135 4.379978 -23.484003 0.221548 2.373943 -9.307954 -2.463304
-33.441342 87.377831 119.800732 8.314983 -2.540369 2.302519 -8.278299 4.750322 3.638093 -3.022834 2.544570 1.334338 -3.022834 2.544570 1.334338 -2.272324 1.901895 1.013211 -0.558540 19.243664 2.596400 -1.843717 -0.384473 4.927458 5.050079 -11.694688 3.979901 11.049599 -37.981706 41.439600 124.434605 -17.729335 17.761127 6.774320 5.370438 -14.458778 -20.744470 -11.144732 -6.623013 5.075033 -61.598431 -69.314701 -99.604972 -5.247455 -30.681262 -5.257123 10.063665 12.964268 1.216898 -27.806285 1.583749 12.082277 30.908704 -2.677189 -3.342493 0.676537 3.912731 -1.000342 0.411653 -1.014678 16.895789 14.281352 5.766606 6.281741 21.497511 -9.597110 4.876055 -23.496525 0.279301 1.961426 -7.845288 -3.226295
